<svg width="23" height="40" viewBox="0 0 23 40" fill="none" xmlns="http://www.w3.org/2000/svg">
<path d="M0 40C0 39.3783 0 38.8035 0 38.1466C0.67191 38.1466 1.3309 38.1466 2.04157 38.1466C2.04157 37.478 2.04157 36.8798 2.04157 36.2229C2.76517 36.2229 3.42416 36.2229 4.14775 36.2229C4.14775 35.566 4.14775 34.9677 4.14775 34.3226C6.27978 34.3226 8.33427 34.3226 10.4275 34.3226C10.4275 32.3988 10.4275 30.5337 10.4275 28.5982C9.05787 28.5982 7.6882 28.5982 6.25393 28.5982C6.25393 27.9296 6.25393 27.3431 6.25393 26.6979C5.54326 26.6979 4.89719 26.6979 4.18652 26.6979C4.18652 26.0645 4.18652 25.4663 4.18652 24.7977C3.46292 24.7977 2.80393 24.7977 2.10618 24.7977C2.10618 17.783 2.10618 10.827 2.10618 3.81232C2.75225 3.81232 3.41123 3.81232 4.13483 3.81232C4.13483 3.15543 4.13483 2.55718 4.13483 1.88856C4.85843 1.88856 5.51742 1.88856 6.24101 1.88856C6.24101 1.21994 6.24101 0.621701 6.24101 0C9.76854 0 13.2315 0 16.759 0C16.759 0.621701 16.759 1.21994 16.759 1.8651C17.4826 1.8651 18.1157 1.8651 18.8264 1.8651C18.8264 2.51026 18.8264 3.1085 18.8264 3.7654C19.55 3.7654 20.209 3.7654 20.9067 3.7654C20.9067 10.7801 20.9067 17.7243 20.9067 24.7507C20.2607 24.7507 19.6017 24.7507 18.8781 24.7507C18.8781 25.4076 18.8781 26.0059 18.8781 26.6628C18.1545 26.6628 17.4955 26.6628 16.7719 26.6628C16.7719 27.3196 16.7719 27.9179 16.7719 28.563C15.3506 28.563 13.9938 28.563 12.5983 28.563C12.5983 30.4751 12.5983 32.3402 12.5983 34.2874C14.6528 34.2874 16.7202 34.2874 18.8393 34.2874C18.8393 34.9443 18.8393 35.5191 18.8393 36.1642C19.5371 36.1642 20.1961 36.1642 20.9197 36.1642C20.9197 36.8211 20.9197 37.4194 20.9197 38.088C21.6433 38.088 22.3022 38.088 23 38.088C23 38.7566 23 39.3548 23 39.9883C15.3506 40 7.71405 40 0 40Z" fill="#1502EA"/>
</svg>
